#N canvas 818 109 450 300 12;
#X floatatom 51 -644 5 0 0 0 - - -, f 5;
#X obj 51 -620 * 0.05776;
#X obj 51 -596 exp;
#X floatatom 51 -558 5 0 0 0 - - -, f 5;
#X obj 51 -533 - 1;
#X obj 51 -508 * -1;
#X obj 51 -472 /;
#X floatatom 51 -443 5 0 0 0 - - -, f 5;
#X obj 51 -415 phasor~;
#X obj 51 -386 -~ 0.5;
#X obj 51 -357 *~ 0.5;
#X obj 51 -328 cos~;
#X obj 51 -299 *~;
#X obj 51 -270 +~;
#X floatatom 245 -624 5 0 0 0 - - -, f 5;
#X obj 245 -596 max 1;
#X obj 123 -555 * 0.001;
#X obj 119 -523 t b f;
#X obj 245 -517 pack 0 200;
#X obj 245 -488 line~;
#X obj 122 -386 *~;
#X obj 122 -357 +~;
#X obj 126 -470 +~ 0.5;
#X obj 126 -441 wrap~;
#X obj 241 -386 -~ 0.5;
#X obj 241 -357 *~ 0.5;
#X obj 241 -328 cos~;
#X obj 241 -299 *~;
#X obj 316 -386 *~;
#X obj 316 -357 +~;
#X floatatom 405 -480 5 0 0 0 - - -, f 5;
#X obj 405 -452 max 1.5;
#X obj 405 -423 pack 0 200;
#X obj 405 -394 line~;
#X obj 386 -640 loadbang;
#X obj 175 -693 delwrite~ \$0-G09-del 10000;
#X obj 123 -328 vd~ \$0-G09-del;
#X obj 316 -328 vd~ \$0-G09-del;
#X text 44 -728 PITCH SHIFTER;
#X obj 265 -723 inlet;
#X obj 51 -673 r \$0-transpose;
#X obj 245 -653 r \$0-window;
#X obj 405 -509 r \$0-delay;
#X msg 386 -611 \; \$0-transpose 0 \; \$0-window 50 \; \$0-delay 0
;
#X obj 51 -233 *~;
#X obj 53 -203 outlet~;
#X obj 174 -723 inlet~;
#X obj 401 -251 inlet;
#X connect 0 0 1 0;
#X connect 1 0 2 0;
#X connect 2 0 3 0;
#X connect 3 0 4 0;
#X connect 4 0 5 0;
#X connect 5 0 6 0;
#X connect 6 0 7 0;
#X connect 7 0 8 0;
#X connect 8 0 9 0;
#X connect 8 0 22 0;
#X connect 8 0 20 0;
#X connect 9 0 10 0;
#X connect 10 0 11 0;
#X connect 11 0 12 0;
#X connect 12 0 13 0;
#X connect 13 0 44 0;
#X connect 14 0 15 0;
#X connect 15 0 16 0;
#X connect 15 0 18 0;
#X connect 16 0 17 0;
#X connect 17 0 6 0;
#X connect 17 1 6 1;
#X connect 18 0 19 0;
#X connect 19 0 20 1;
#X connect 19 0 28 1;
#X connect 20 0 21 0;
#X connect 21 0 36 0;
#X connect 22 0 23 0;
#X connect 23 0 24 0;
#X connect 23 0 28 0;
#X connect 24 0 25 0;
#X connect 25 0 26 0;
#X connect 26 0 27 0;
#X connect 27 0 13 1;
#X connect 28 0 29 0;
#X connect 29 0 37 0;
#X connect 30 0 31 0;
#X connect 31 0 32 0;
#X connect 32 0 33 0;
#X connect 33 0 29 1;
#X connect 33 0 21 1;
#X connect 34 0 43 0;
#X connect 36 0 12 1;
#X connect 37 0 27 1;
#X connect 39 0 0 0;
#X connect 40 0 0 0;
#X connect 41 0 14 0;
#X connect 42 0 30 0;
#X connect 44 0 45 0;
#X connect 46 0 35 0;
#X connect 47 0 44 1;
