#N canvas -2 172 638 650 12;
#X msg 27 -106 poll 2;
#X obj 27 -64 hid;
#X msg 108 -106 open 9;
#N canvas 162 133 570 420 serin 0;
#X obj 286 61 cnv 15 30 15 empty \$0-open-canvas 9 4 8 0 14 #e0e0e0
#000000 0;
#X obj 60 61 hradio 15 1 1 15 empty empty empty 0 -6 0 8 #d8fcd8 #000000
#000000 9;
#X obj 60 13 inlet;
#X msg 200 202 label \$1;
#X obj 200 180 makefilename %d;
#X obj 59 108 int;
#X obj 59 337 outlet;
#X msg 201 306 set \$1 \$2;
#X obj 59 266 trigger bang anything;
#X obj 201 286 list;
#X msg 60 210 open \$1;
#X obj 200 225 send \$0-open-canvas;
#X connect 1 0 5 0;
#X connect 2 0 1 0;
#X connect 3 0 11 0;
#X connect 4 0 3 0;
#X connect 5 0 4 0;
#X connect 5 0 10 0;
#X connect 7 0 6 0;
#X connect 8 0 6 0;
#X connect 8 1 9 0;
#X connect 9 0 7 0;
#X connect 10 0 8 0;
#X coords 0 -1 1 1 257 17 1 60 60;
#X restore 108 -130 pd serin;
#X msg 27 -226 /home/pi/kontrolrig_get_hid_number.sh;
#X obj 27 -202 shell;
#X floatatom 27 -179 5 0 0 0 - - -, f 5;
#X obj 27 -251 loadbang;
#X obj 27 -156 t b f, f 12;
#X obj 27 210 route key_1 key_2 key_3 key_4 key_5 key_6 key_7, f 52
;
#X obj 27 264 sel 1;
#X obj 27 294 tgl 37 0 empty empty empty 17 7 0 10 #fcfcfc #000000
#000000 0 1;
#X obj 102 264 sel 1;
#X obj 102 294 tgl 37 0 empty empty empty 17 7 0 10 #fcfcfc #000000
#000000 0 1;
#X obj 184 264 sel 1;
#X obj 184 294 tgl 37 0 empty empty empty 17 7 0 10 #fcfcfc #000000
#000000 0 1;
#X obj 268 264 sel 1;
#X obj 268 294 tgl 37 0 empty empty empty 17 7 0 10 #fcfcfc #000000
#000000 0 1;
#X obj 358 264 sel 1;
#X obj 358 294 tgl 37 0 empty empty empty 17 7 0 10 #fcfcfc #000000
#000000 0 1;
#X obj 443 264 sel 1;
#X obj 443 294 tgl 37 0 empty empty empty 17 7 0 10 #fcfcfc #000000
#000000 0 1;
#X obj 527 264 sel 1;
#X obj 527 294 tgl 37 0 empty empty empty 17 7 0 10 #fcfcfc #000000
#000000 0 1;
#X obj 27 236 change;
#X obj 102 236 change;
#X obj 184 236 change;
#X obj 268 236 change;
#X obj 358 236 change;
#X obj 443 236 change;
#X obj 527 236 change;
#X obj 102 340 s KR_key_2;
#X obj 27 340 s KR_key_1;
#X obj 184 340 s KR_key_3;
#X obj 527 340 s KR_key_7;
#X obj 443 340 s KR_key_6;
#X obj 358 340 s KR_key_5;
#X obj 268 340 s KR_key_4;
#X obj 71 15 route abs_x abs_y abs_z, f 48;
#X obj 293 49 s expression_pedal;
#X obj 71 50 s volume_pedal;
#X obj 180 51 s sustain_pedal;
#X obj 27 -25 route key abs;
#X connect 0 0 1 0;
#X connect 1 0 42 0;
#X connect 2 0 1 0;
#X connect 3 0 2 0;
#X connect 4 0 5 0;
#X connect 5 0 6 0;
#X connect 6 0 8 0;
#X connect 7 0 4 0;
#X connect 8 0 0 0;
#X connect 8 1 3 0;
#X connect 9 0 24 0;
#X connect 9 1 25 0;
#X connect 9 2 26 0;
#X connect 9 3 27 0;
#X connect 9 4 28 0;
#X connect 9 5 29 0;
#X connect 9 6 30 0;
#X connect 10 0 11 0;
#X connect 11 0 32 0;
#X connect 12 0 13 0;
#X connect 13 0 31 0;
#X connect 14 0 15 0;
#X connect 15 0 33 0;
#X connect 16 0 17 0;
#X connect 17 0 37 0;
#X connect 18 0 19 0;
#X connect 19 0 36 0;
#X connect 20 0 21 0;
#X connect 21 0 35 0;
#X connect 22 0 23 0;
#X connect 23 0 34 0;
#X connect 24 0 10 0;
#X connect 25 0 12 0;
#X connect 26 0 14 0;
#X connect 27 0 16 0;
#X connect 28 0 18 0;
#X connect 29 0 20 0;
#X connect 30 0 22 0;
#X connect 38 0 40 0;
#X connect 38 1 41 0;
#X connect 38 2 39 0;
#X connect 42 0 9 0;
#X connect 42 1 38 0;
