#N canvas 67 70 1047 625 12;
#X obj 252 -322 delwrite~ overduber;
#X obj 19 -903 bng 19 250 50 0 empty \$0-looper_start_rec start_rec
-5 -9 0 10 #fcfcfc #000000 #000000;
#X obj 88 -903 bng 19 250 50 0 empty \$0-looper_stop_rec stop_rec -1
-9 0 10 #fcfcfc #000000 #000000;
#X msg -19 -740 start;
#X msg 42 -742 stop, f 6;
#N canvas 417 249 450 325 (subpatch) 0;
#X array \$0-audiodata 2.88e+06 float 2 black #40d335;
#X coords 0 1 2.88e+06 -1 200 140 1;
#X restore 28 -1075 graph;
#X obj 212 -856 timer, f 7;
#X floatatom 343 -807 6 0 0 1 loop_time - #0-loop_time, f 6;
#X obj 577 -747 expr 1000 / $f1;
#X obj 577 -669 phasor~;
#X obj 571 -598 *~;
#X msg 522 -699 0;
#X obj 617 -602 * 192;
#X msg 670 -704 0;
#N canvas 2 70 638 650 looper_slice 0;
#X obj 54 391 / 2;
#X floatatom 72 413 9 0 0 0 - - -, f 9;
#X obj 255 340 / 4;
#X floatatom 274 362 9 0 0 0 - - -, f 9;
#X floatatom 442 275 9 0 0 0 - - -, f 9;
#X obj 424 248 / 8;
#X obj 514 223 / 16;
#X floatatom 543 242 9 0 0 0 - - -, f 9;
#X obj 54 437 v \$0-looptime_half;
#X obj 255 392 v \$0-looptime_quarter;
#X obj 424 299 v \$0-looptime_eighth;
#X obj 514 269 v \$0-looptime_sixteenth;
#X floatatom 744 252 16 0 0 0 - - -, f 16;
#X obj 130 203 bng 15 250 50 0 empty empty empty 17 7 0 10 #fcfcfc
#000000 #000000;
#X obj 279 203 bng 15 250 50 0 empty empty empty 17 7 0 10 #fcfcfc
#000000 #000000;
#X obj 372 203 bng 15 250 50 0 empty empty empty 17 7 0 10 #fcfcfc
#000000 #000000;
#X obj 432 203 bng 15 250 50 0 empty empty empty 17 7 0 10 #fcfcfc
#000000 #000000;
#X obj 29 470 v \$0-looptime_whole;
#X obj 96 203 bng 15 250 50 0 empty empty empty 17 7 0 10 #fcfcfc #000000
#000000;
#X floatatom 63 87 11 0 0 1 loop_time #0-loop_time -, f 11;
#X obj 494 374 s \$0-loop_time_slice;
#X floatatom 204 394 5 0 0 0 - - -, f 5;
#X floatatom 234 -3 5 0 0 0 - - -, f 5;
#X obj 179 377 / 3;
#X obj 193 422 v \$0-looptime_third;
#X floatatom 378 321 5 0 0 0 - - -, f 5;
#X obj 344 340 v \$0-looptime_sixth;
#X obj 193 203 bng 15 250 50 0 empty empty empty 17 7 0 10 #fcfcfc
#000000 #000000;
#X obj 321 203 bng 15 250 50 0 empty empty empty 17 7 0 10 #fcfcfc
#000000 #000000;
#X obj 346 306 / 6;
#X floatatom 581 167 9 0 0 0 - - -, f 9;
#X obj 551 194 v \$0-looptime_thirtysecond;
#X obj 552 147 / 32;
#X obj 479 154 bng 15 250 50 0 empty empty empty 17 7 0 10 #fcfcfc
#000000 #000000;
#X floatatom 641 93 9 0 0 0 - - -, f 9;
#X obj 611 74 / 64;
#X floatatom 691 31 9 0 0 0 - - -, f 9;
#X obj 664 60 v \$0-looptime_onetwentyeighth;
#X obj 662 11 / 128;
#X obj 611 120 v \$0-looptime_sixtyfourth;
#X obj 318 44 sel 1 2 3 4 5 6 7 8 9 10;
#X obj 468 101 bng 15 250 50 0 empty empty empty 17 7 0 10 #fcfcfc
#000000 #000000;
#X obj 509 105 bng 15 250 50 0 empty empty empty 17 7 0 10 #fcfcfc
#000000 #000000;
#X obj 327 -2 r looptime_select;
#X connect 0 0 1 0;
#X connect 0 0 8 0;
#X connect 2 0 3 0;
#X connect 2 0 9 0;
#X connect 5 0 4 0;
#X connect 5 0 10 0;
#X connect 6 0 7 0;
#X connect 6 0 11 0;
#X connect 8 0 12 0;
#X connect 9 0 12 0;
#X connect 10 0 12 0;
#X connect 11 0 12 0;
#X connect 12 0 20 0;
#X connect 13 0 8 0;
#X connect 14 0 9 0;
#X connect 15 0 10 0;
#X connect 16 0 11 0;
#X connect 17 0 12 0;
#X connect 18 0 17 0;
#X connect 19 0 6 0;
#X connect 19 0 0 0;
#X connect 19 0 2 0;
#X connect 19 0 5 0;
#X connect 19 0 17 0;
#X connect 19 0 23 0;
#X connect 19 0 29 0;
#X connect 19 0 32 0;
#X connect 19 0 38 0;
#X connect 19 0 35 0;
#X connect 23 0 21 0;
#X connect 23 0 24 0;
#X connect 24 0 12 0;
#X connect 26 0 12 0;
#X connect 27 0 24 0;
#X connect 28 0 26 0;
#X connect 29 0 25 0;
#X connect 29 0 26 0;
#X connect 31 0 12 0;
#X connect 32 0 30 0;
#X connect 32 0 31 0;
#X connect 33 0 31 0;
#X connect 35 0 34 0;
#X connect 35 0 39 0;
#X connect 37 0 12 0;
#X connect 38 0 36 0;
#X connect 38 0 37 0;
#X connect 39 0 12 0;
#X connect 40 0 18 0;
#X connect 40 1 13 0;
#X connect 40 2 27 0;
#X connect 40 3 14 0;
#X connect 40 4 28 0;
#X connect 40 5 15 0;
#X connect 40 6 16 0;
#X connect 40 7 33 0;
#X connect 40 8 41 0;
#X connect 40 9 42 0;
#X connect 41 0 39 0;
#X connect 42 0 37 0;
#X connect 43 0 22 0;
#X connect 43 0 40 0;
#X restore 387 -1062 pd looper_slice;
#X obj 279 -1007 bng 19 250 50 0 \$0-looper_stop_rec empty stop_rec
-29 23 0 10 #fcfcfc #000000 #000000;
#X obj 751 -715 bng 19 250 50 0 empty \$0-looper_arm_rec arm_rec -10
-12 0 10 #fcfcfc #000000 #000000;
#N canvas 468 230 515 483 rec_threshhold 0;
#X obj 36 -28 sel 1;
#X obj 35 -88 spigot, f 7;
#X obj 80 -108 tgl 15 0 empty empty empty 17 7 0 10 #fcfcfc #000000
#000000 0 1;
#X msg 151 -47 0;
#X obj 36 1 t b b b;
#X obj 43 49 bng 33 250 50 0 \$0-looper_start_rec empty start_rec -11
40 0 10 #fcfcfc #000000 #000000;
#X obj 97 -178 bng 19 250 50 0 empty \$0-looper_arm_rec arm_rec 14
3 0 10 #fcfcfc #000000 #000000;
#X msg 97 -150 1;
#X obj 35 -54 >= 50;
#X obj 220 -55 - 95;
#X obj 219 -210 vsl 15 128 0 127 0 0 empty record_threshhold record_threshhold
0 -9 0 10 #fcfcfc #000000 #000000 4950 1;
#X obj 220 -26 s threshhold_vu;
#X obj 33 -250 r volume-in_env;
#X connect 0 0 4 0;
#X connect 1 0 8 0;
#X connect 2 0 1 1;
#X connect 3 0 2 0;
#X connect 4 0 3 0;
#X connect 4 1 5 0;
#X connect 4 2 3 0;
#X connect 6 0 7 0;
#X connect 7 0 2 0;
#X connect 8 0 0 0;
#X connect 9 0 11 0;
#X connect 10 0 8 1;
#X connect 10 0 9 0;
#X connect 12 0 1 0;
#X restore 387 -1091 pd rec_threshhold;
#X obj 308 -1008 bng 19 250 50 0 \$0-looper_arm_rec empty arm_rec 2
25 0 10 #fcfcfc #000000 #000000;
#X obj 279 -1035 sel 0 1;
#X obj 583 -856 r \$0-loop_time_slice;
#X floatatom 583 -807 10 0 0 0 - - -, f 10;
#X floatatom 590 -951 11 0 0 1 loop_time #0-loop_time -, f 11;
#X obj 576 -511 +~ 0;
#X obj 590 -924 * 192;
#X floatatom 728 -867 11 0 0 0 - - -, f 11;
#X obj 590 -893 s \$0-loop_samples;
#X obj 667 -571 r \$0-sample_offset;
#N canvas 0 341 638 650 eighth-offset 0;
#X obj 124 169 / 8;
#X obj 124 144 r \$0-loop_samples;
#X obj 124 195 v \$0-samples_eighth;
#X obj 66 261 s \$0-sample_offset;
#X obj 66 228 *;
#X obj 126 -51 vradio 15 0 0 10 empty eighth_offset eighth_offset 0
-8 0 10 #fcfcfc #000000 #000000 0;
#X obj 66 131 t b f;
#X floatatom 166 102 5 0 0 0 - - -, f 5;
#X connect 0 0 2 0;
#X connect 1 0 0 0;
#X connect 2 0 4 0;
#X connect 4 0 3 0;
#X connect 5 0 6 0;
#X connect 5 0 7 0;
#X connect 6 0 2 0;
#X connect 6 1 4 1;
#X restore 387 -1025 pd eighth-offset;
#X obj 279 -1109 tgl 73 0 empty looper_tgl looper_tgl 8 13 0 10 #fcfcfc
#000000 #000000 0 1;
#X obj 587 -1005 s udpOUT2;
#X msg 582 -1042 \$1 1 loop_rec_tgl_DRUM;
#X obj 493 -323 outlet~;
#X obj 533 -475 tabread4~ \$0-audiodata;
#X obj 11 -340 tabwrite~ \$0-audiodata;
#X obj 272 -580 vd~ overduber 10000;
#X obj 90 -675 inlet~;
#X obj 250 -501 +~;
#X obj 405 -888 s \$0-loop_time_slice;
#X obj 511 -373 *~;
#X obj 660 -403 line~, f 13;
#X msg 660 -442 1 5, f 4;
#X msg 748 -442 0 5;
#X obj 456 -540 tgl 41 0 empty looper_overdub overdub 8 13 0 10 #fcfcfc
#000000 #000000 1 1;
#X obj 447 -449 line~;
#X obj 372 -405 *~;
#X msg 452 -484 \$1 5;
#X obj 380 -735 t f f f b;
#X obj 666 -543 t f f;
#X connect 1 0 6 0;
#X connect 1 0 3 0;
#X connect 2 0 6 1;
#X connect 2 0 4 0;
#X connect 3 0 34 0;
#X connect 4 0 34 0;
#X connect 6 0 7 0;
#X connect 6 0 47 0;
#X connect 8 0 9 0;
#X connect 9 0 10 0;
#X connect 10 0 23 0;
#X connect 11 0 9 0;
#X connect 12 0 10 1;
#X connect 13 0 9 1;
#X connect 16 0 13 0;
#X connect 16 0 11 0;
#X connect 16 0 42 0;
#X connect 19 0 15 0;
#X connect 19 1 18 0;
#X connect 20 0 21 0;
#X connect 20 0 47 0;
#X connect 22 0 24 0;
#X connect 23 0 33 0;
#X connect 24 0 25 0;
#X connect 24 0 26 0;
#X connect 27 0 48 0;
#X connect 29 0 19 0;
#X connect 31 0 30 0;
#X connect 33 0 39 0;
#X connect 35 0 37 1;
#X connect 36 0 34 0;
#X connect 36 0 37 0;
#X connect 37 0 45 0;
#X connect 39 0 32 0;
#X connect 40 0 39 1;
#X connect 41 0 40 0;
#X connect 42 0 40 0;
#X connect 43 0 46 0;
#X connect 44 0 45 1;
#X connect 45 0 32 0;
#X connect 45 0 0 0;
#X connect 46 0 44 0;
#X connect 47 0 35 0;
#X connect 47 1 8 0;
#X connect 47 2 12 0;
#X connect 47 3 41 0;
#X connect 48 0 41 0;
#X connect 48 1 23 1;
