#N canvas 1894 194 638 651 12;
#X obj 30 46 inlet;
#X obj 30 273 outlet;
#X obj 30 155 list fromsymbol;
#X obj 30 214 - 48;
#X obj 30 96 t s;
#X connect 0 0 4 0;
#X connect 2 0 3 0;
#X connect 3 0 1 0;
#X connect 4 0 2 0;
